<svg viewBox="0 0 1056 684.406" width="1056" xmlns="http://www.w3.org/2000/svg" xmlns:xlink="http://www.w3.org/1999/xlink" height="684">
    <defs/>
    <g transform="translate(1.00,1.00)" id="group1">
        <g transform="translate(20.70,-0.00)" id="group2">
            <path fill-rule="nonzero" fill="#567bea" transform="translate(629.22,280.40)" d="M.6,18.8C.6,18.8,-0.6,-0.6,17.6,.0C40.9,.0,223.3,.0,233.1,.0C242.8,.0,250.0,4.5,250.0,20.1C250.0,35.7,250.0,283.7,250.0,295.3C249.2,313.5,237.0,312.2,237.0,312.2L16.3,312.7C16.3,312.7,2.0,314.8,.6,297.9C-0.8,281.1,.6,18.8,.6,18.8z" id="shape3"/>
            <path fill-rule="nonzero" fill="#567bea" transform="translate(0.00,160.09)" d="M.0,46.0C.0,20.6,20.6,.0,46.0,.0C71.4,.0,92.0,20.6,92.0,46.0C92.0,71.4,71.4,92.0,46.0,92.0C20.6,92.0,.0,71.4,.0,46.0zM46.0,85.6C67.9,85.6,85.6,67.9,85.6,46.0C85.6,24.1,67.9,6.4,46.0,6.4C24.1,6.4,6.4,24.1,6.4,46.0C6.4,67.9,24.1,85.6,46.0,85.6z" id="shape4"/>
            <path stroke-width="1" fill="none" stroke="#868686" transform="translate(92.02,200.50)" d="M.0,.0L75.7,.0" id="shape5"/>
            <path fill-rule="nonzero" fill="#567bea" transform="translate(155.97,190.28)" d="M.0,10.0C.0,4.5,4.3,.0,9.7,.0C15.0,.0,19.3,4.5,19.3,10.0C19.3,15.5,15.0,20.0,9.7,20.0C4.3,20.0,.0,15.5,.0,10.0z" id="shape6"/>
            <path fill-rule="nonzero" fill="#ffffff" transform="translate(645.17,293.82)" d="M.0,.0L218.1,.0L218.1,285.9L.0,285.9L.0,.0z" id="shape7"/>
            <path fill-rule="nonzero" fill="#567bea" transform="translate(675.11,245.35)" d="M14.6,28.1C27.9,18.9,47.4,19.5,47.4,19.5C47.4,19.5,53.8,.0,75.9,.0C97.9,.0,104.7,19.5,104.7,19.5C104.7,19.5,121.7,19.2,136.5,26.0C151.4,32.7,155.8,53.9,155.8,53.9L.0,53.9C.0,53.9,1.2,37.3,14.6,28.1zM74.9,31.9C80.7,31.9,85.3,27.2,85.3,21.4C85.3,15.6,80.7,11.0,74.9,11.0C69.1,11.0,64.4,15.6,64.4,21.4C64.4,27.2,69.1,31.9,74.9,31.9z" id="shape8"/>
            <path fill-rule="nonzero" fill="#567bea" transform="translate(662.05,326.30)" d="M.0,.0L39.1,.0L39.1,38.0L.0,38.0L.0,.0zM4.0,34.2L35.1,34.2L35.1,3.9L4.0,3.9L4.0,34.2z" id="shape9"/>
            <path fill-rule="nonzero" fill="#567bea" transform="translate(669.11,337.06)" d="M.0,7.6L2.0,5.6L9.7,12.5L22.9,.0L25.0,2.4L9.7,16.5L.0,7.6z" id="shape10"/>
            <path fill-rule="nonzero" fill="#9b9b9b" transform="translate(717.29,326.05)" d="M.0,.0L128.3,.0L128.3,6.9L.0,6.9L.0,.0z" id="shape11"/>
            <path fill-rule="nonzero" fill="#9b9b9b" transform="translate(717.29,341.88)" d="M.0,.0L128.3,.0L128.3,6.9L.0,6.9L.0,.0z" id="shape12"/>
            <path fill-rule="nonzero" fill="#9b9b9b" transform="translate(717.29,357.45)" d="M.0,.0L84.1,.0L84.1,6.9L.0,6.9L.0,.0z" id="shape13"/>
            <path fill-rule="nonzero" fill="#ffcd55" transform="translate(662.45,385.64)" d="M.0,.0L39.1,.0L39.1,38.0L.0,38.0L.0,.0zM4.0,34.2L35.1,34.2L35.1,3.9L4.0,3.9L4.0,34.2z" id="shape14"/>
            <path fill-rule="nonzero" fill="#ffcd55" transform="translate(669.51,396.40)" d="M.0,7.6L2.0,5.6L9.7,12.5L22.9,.0L25.0,2.4L9.7,16.5L.0,7.6z" id="shape15"/>
            <path fill-rule="nonzero" fill="#9b9b9b" transform="translate(717.69,385.39)" d="M.0,.0L128.3,.0L128.3,6.9L.0,6.9L.0,.0z" id="shape16"/>
            <path fill-rule="nonzero" fill="#9b9b9b" transform="translate(717.69,401.22)" d="M.0,.0L128.3,.0L128.3,6.9L.0,6.9L.0,.0z" id="shape17"/>
            <path fill-rule="nonzero" fill="#9b9b9b" transform="translate(717.69,416.80)" d="M.0,.0L127.5,.0L127.5,6.9L.0,6.9L.0,.0z" id="shape18"/>
            <path fill-rule="nonzero" fill="#ea8125" transform="translate(662.01,448.20)" d="M.0,.0L39.1,.0L39.1,38.0L.0,38.0L.0,.0zM4.0,34.2L35.1,34.2L35.1,3.9L4.0,3.9L4.0,34.2z" id="shape19"/>
            <path fill-rule="nonzero" fill="#ea8125" transform="translate(669.07,458.96)" d="M.0,7.6L2.0,5.6L9.7,12.5L22.9,.0L25.0,2.4L9.7,16.5L.0,7.6z" id="shape20"/>
            <path fill-rule="nonzero" fill="#9b9b9b" transform="translate(717.25,447.95)" d="M.0,.0L128.3,.0L128.3,6.9L.0,6.9L.0,.0z" id="shape21"/>
            <path fill-rule="nonzero" fill="#9b9b9b" transform="translate(717.25,463.78)" d="M.0,.0L128.3,.0L128.3,6.9L.0,6.9L.0,.0z" id="shape22"/>
            <path fill-rule="nonzero" fill="#9b9b9b" transform="translate(717.25,479.36)" d="M.0,.0L112.3,.0L112.3,6.9L.0,6.9L.0,.0z" id="shape23"/>
            <path fill-rule="nonzero" fill="#c7d47d" transform="translate(661.43,511.44)" d="M.0,.0L39.1,.0L39.1,38.0L.0,38.0L.0,.0zM4.0,34.2L35.1,34.2L35.1,3.9L4.0,3.9L4.0,34.2z" id="shape24"/>
            <path fill-rule="nonzero" fill="#c7d47d" transform="translate(668.49,522.20)" d="M.0,7.6L2.0,5.6L9.7,12.5L22.9,.0L25.0,2.4L9.7,16.5L.0,7.6z" id="shape25"/>
            <path fill-rule="nonzero" fill="#9b9b9b" transform="translate(716.68,511.19)" d="M.0,.0L128.3,.0L128.3,6.9L.0,6.9L.0,.0z" id="shape26"/>
            <path fill-rule="nonzero" fill="#9b9b9b" transform="translate(716.68,527.02)" d="M.0,.0L128.3,.0L128.3,6.9L.0,6.9L.0,.0z" id="shape27"/>
            <path fill-rule="nonzero" fill="#9b9b9b" transform="translate(716.68,542.60)" d="M.0,.0L127.5,.0L127.5,6.9L.0,6.9L.0,.0z" id="shape28"/>
            <g transform="translate(907.47,299.20)" id="group29">
                <path fill-rule="nonzero" fill="#868686" transform="translate(24.94,9.02)" d="M.0,.0C.0,.0,13.3,7.8,18.0,23.4C22.7,38.9,19.5,102.8,19.5,114.5C19.5,126.1,9.4,127.7,7.9,120.7C6.3,113.7,13.3,116.8,13.3,111.4C13.3,105.9,14.1,45.2,12.5,31.2C11.0,17.1,1.6,15.6,1.6,15.6L.0,.0z" id="shape30"/>
                <path fill-rule="nonzero" fill="#696969" transform="translate(0.60,136.50)" d="M.0,.0L.0,101.4C.0,101.4,.5,108.7,1.6,115.2C2.7,121.7,5.4,128.2,5.4,128.2L22.7,127.8C22.7,127.8,26.0,119.3,26.0,114.7C27.6,110.3,27.0,100.6,27.0,100.6C28.1,97.4,27.7,1.3,27.7,1.3L.0,.0z" id="shape31"/>
                <path fill-rule="nonzero" fill="#696969" transform="translate(0.01,0.00)" d="M.6,138.7L28.3,137.8L28.3,26.2C28.3,26.2,29.2,.2,14.2,.0C-0.9,-0.2,.0,26.2,.0,26.2L.6,138.7z" id="shape32"/>
                <path fill-rule="nonzero" fill="#ffcd55" transform="translate(0.60,128.93)" d="M.0,.0L27.7,.0L27.7,9.3L.0,9.3L.0,.0z" id="shape33"/>
                <path fill-rule="nonzero" fill="#d6d6d6" transform="translate(5.96,264.29)" d="M.0,.4C.0,2.1,3.2,14.6,4.8,18.7C6.4,22.7,5.5,29.6,7.3,29.6C11.0,29.6,8.4,27.2,13.3,17.0C18.2,6.9,17.4,.0,17.4,.0L.0,.4z" id="shape34"/>
            </g>
            <path fill-rule="nonzero" fill="#e9ecfb" transform="translate(532.32,181.42)" d="M.0,250.5C.0,112.1,112.1,.0,250.5,.0C388.8,.0,501.0,112.1,501.0,250.5C501.0,388.8,388.8,501.0,250.5,501.0C112.1,501.0,.0,388.8,.0,250.5zM250.5,479.4C376.9,479.4,479.4,376.9,479.4,250.5C479.4,124.1,376.9,21.6,250.5,21.6C124.1,21.6,21.6,124.1,21.6,250.5C21.6,376.9,124.1,479.4,250.5,479.4z" id="shape35"/>
            <g transform="translate(264.07,0.00)" id="shape36">
                <text xml:space="preserve" style="fill:#454545;font-family:微软雅黑;font-size:26.00pt;font-weight:bold">
                    <tspan x="167.8" y="66.9">欢迎使用!</tspan>
                </text>
            </g>
            <path fill-rule="nonzero" fill="#ffcd55" transform="translate(0.00,295.19)" d="M.0,46.0C.0,20.6,20.6,.0,46.0,.0C71.4,.0,92.0,20.6,92.0,46.0C92.0,71.4,71.4,92.0,46.0,92.0C20.6,92.0,.0,71.4,.0,46.0zM46.0,85.6C67.9,85.6,85.6,67.9,85.6,46.0C85.6,24.1,67.9,6.4,46.0,6.4C24.1,6.4,6.4,24.1,6.4,46.0C6.4,67.9,24.1,85.6,46.0,85.6z" id="shape37"/>
            <path stroke-width="1" fill="none" stroke="#868686" transform="translate(92.02,336.03)" d="M.0,.0L75.7,.0" id="shape38"/>
            <path fill-rule="nonzero" fill="#ffcd55" transform="translate(155.97,325.81)" d="M.0,10.0C.0,4.5,4.3,.0,9.7,.0C15.0,.0,19.3,4.5,19.3,10.0C19.3,15.5,15.0,20.0,9.7,20.0C4.3,20.0,.0,15.5,.0,10.0z" id="shape39"/>
            <g transform="translate(24.76,183.60)" id="shape40">
                <text xml:space="preserve" style="fill:#454545;font-family:微软雅黑;font-size:12.00pt;font-weight:bold">
                    <tspan x="11.5" y="26.9">01</tspan>
                </text>
            </g>
            <g transform="translate(22.24,316.20)" id="shape41">
                <text xml:space="preserve" style="fill:#454545;font-family:微软雅黑;font-size:12.00pt;font-weight:bold">
                    <tspan x="14.1" y="29.4">02</tspan>
                </text>
            </g>
            <path fill-rule="nonzero" fill="#ea8125" transform="translate(0.00,432.68)" d="M.0,46.0C.0,20.6,20.6,.0,46.0,.0C71.4,.0,92.0,20.6,92.0,46.0C92.0,71.4,71.4,92.0,46.0,92.0C20.6,92.0,.0,71.4,.0,46.0zM46.0,85.6C67.9,85.6,85.6,67.9,85.6,46.0C85.6,24.1,67.9,6.4,46.0,6.4C24.1,6.4,6.4,24.1,6.4,46.0C6.4,67.9,24.1,85.6,46.0,85.6z" id="shape42"/>
            <path stroke-width="1" fill="none" stroke="#868686" transform="translate(92.02,487.09)" d="M.0,.0L75.7,.0" id="shape43"/>
            <path fill-rule="nonzero" fill="#ea8125" transform="translate(155.97,475.87)" d="M.0,10.0C.0,4.5,4.3,.0,9.7,.0C15.0,.0,19.3,4.5,19.3,10.0C19.3,15.5,15.0,20.0,9.7,20.0C4.3,20.0,.0,15.5,.0,10.0z" id="shape44"/>
            <g transform="translate(22.24,459.98)" id="shape45">
                <text xml:space="preserve" style="fill:#454545;font-family:微软雅黑;font-size:12.00pt;font-weight:bold">
                    <tspan x="14.1" y="23.1">03</tspan>
                </text>
            </g>
            <path fill-rule="nonzero" fill="#c7d47d" transform="translate(0.00,568.20)" d="M.0,46.0C.0,20.6,20.6,.0,46.0,.0C71.4,.0,92.0,20.6,92.0,46.0C92.0,71.4,71.4,92.0,46.0,92.0C20.6,92.0,.0,71.4,.0,46.0zM46.0,85.6C67.9,85.6,85.6,67.9,85.6,46.0C85.6,24.1,67.9,6.4,46.0,6.4C24.1,6.4,6.4,24.1,6.4,46.0C6.4,67.9,24.1,85.6,46.0,85.6z" id="shape46"/>
            <path stroke-width="1" fill="none" stroke="#868686" transform="translate(92.02,608.61)" d="M.0,.0L75.7,.0" id="shape47"/>
            <path fill-rule="nonzero" fill="#c7d47d" transform="translate(155.97,598.39)" d="M.0,10.0C.0,4.5,4.3,.0,9.7,.0C15.0,.0,19.3,4.5,19.3,10.0C19.3,15.5,15.0,20.0,9.7,20.0C4.3,20.0,.0,15.5,.0,10.0z" id="shape48"/>
            <g transform="translate(22.24,591.21)" id="shape49">
                <text xml:space="preserve" style="fill:#454545;font-family:微软雅黑;font-size:12.00pt;font-weight:bold">
                    <tspan x="14.1" y="27.4">04</tspan>
                </text>
            </g>
            <g transform="translate(185.36,160.09)" id="group50">
                <g transform="translate(0.00,26.60)" id="shape51">
                    <circle r="3.4" fill="#454545" cx="6.1" cy="12.6"/>
                    <circle r="3.4" fill="#454545" cx="6.1" cy="33.1"/>
                    <circle r="3.4" fill="#454545" cx="6.1" cy="53.7"/>
                    <circle r="3.4" fill="#454545" cx="6.1" cy="74.3"/>
                    <text xml:space="preserve" style="fill:#454545;font-family:微软雅黑;font-size:12.00pt">
                        <tspan x="13.9" y="18.9">主菜单</tspan>
                        <tspan x="13.9" y="39.4">文件查看器</tspan>
                        <tspan x="13.9" y="60.0">插件管理</tspan>
                        <tspan x="13.9" y="80.6">教程/用户手册</tspan>
                    </text>
                </g>
                <g transform="translate(-0.00,0.00)" id="shape52">
                    <text xml:space="preserve" style="fill:#195477;font-family:微软雅黑;font-size:12.00pt;font-weight:bold">
                        <tspan x="2.5" y="19.1">从左侧边栏开始</tspan>
                    </text>
                </g>
            </g>
            <g transform="translate(185.36,295.62)" id="group53">
                <g transform="translate(0.00,36.49)" id="shape54">
                    <circle r="3.4" fill="#454545" cx="6.4" cy="12.6"/>
                    <circle r="3.4" fill="#454545" cx="6.4" cy="33.1"/>
                    <circle r="3.4" fill="#454545" cx="6.4" cy="53.7"/>
                    <text xml:space="preserve" style="fill:#454545;font-family:微软雅黑;font-size:12.00pt">
                        <tspan x="14.2" y="18.9">请访问https://uniclient.github.io/</tspan>
                        <tspan x="14.2" y="39.4">更新您的软件</tspan>
                        <tspan x="14.2" y="60.0">查看我们的计划</tspan>
                    </text>
                </g>
                <g transform="translate(0.00,0.00)" id="shape55">
                    <text xml:space="preserve" style="fill:#ffcd55;font-family:微软雅黑;font-size:12.00pt;font-weight:bold">
                        <tspan x="2.5" y="23.9">访问我们的网站</tspan>
                    </text>
                </g>
            </g>
            <g transform="translate(185.36,600.80)" id="shape56">
                <circle r="3.4" fill="#454545" cx="6.1" cy="12.6"/>
                <circle r="3.4" fill="#454545" cx="6.1" cy="33.1"/>
                <text xml:space="preserve" style="fill:#454545;font-family:微软雅黑;font-size:12.00pt">
                    <tspan x="13.9" y="18.9">在我们的网站上您可以提出宝贵意见</tspan>
                    <tspan x="13.9" y="39.4">有任何需要定制的功能,请联系我们</tspan>
                </text>
            </g>
            <g transform="translate(185.36,568.20)" id="shape57">
                <text xml:space="preserve" style="fill:#b6c716;font-family:微软雅黑;font-size:12.00pt;font-weight:bold">
                    <tspan x="2.5" y="23.9">提出您的建议</tspan>
                </text>
            </g>
            <g transform="translate(185.36,432.68)" id="group58">
                <g transform="translate(0.00,37.80)" id="shape59">
                    <circle r="3.4" fill="#454545" cx="6.1" cy="12.6"/>
                    <circle r="3.4" fill="#454545" cx="6.1" cy="33.1"/>
                    <circle r="3.4" fill="#454545" cx="6.1" cy="53.7"/>
                    <text xml:space="preserve" style="fill:#454545;font-family:微软雅黑;font-size:12.00pt">
                        <tspan x="13.9" y="18.9">访问网站之后请任意下载您想要的插件</tspan>
                        <tspan x="13.9" y="39.4">本软件由插件驱动</tspan>
                        <tspan x="13.9" y="60.0">插件可以提供多种多样的功能</tspan>
                    </text>
                </g>
                <g transform="translate(-0.00,0.00)" id="shape60">
                    <text xml:space="preserve" style="fill:#ea8125;font-family:微软雅黑;font-size:12.00pt;font-weight:bold">
                        <tspan x="2.5" y="23.9">下载您需要的插件</tspan>
                    </text>
                </g>
            </g>
        </g>
    </g>
</svg>
